<svg width="1600" height="900" viewBox="0 0 1600 900" fill="none" xmlns="http://www.w3.org/2000/svg">
  <defs>
    <radialGradient id="g1" cx="0" cy="0" r="1" gradientUnits="userSpaceOnUse" gradientTransform="translate(360 220) rotate(24) scale(620 420)">
      <stop stop-color="#22D3EE" stop-opacity="0.58"/>
      <stop offset="1" stop-color="#22D3EE" stop-opacity="0"/>
    </radialGradient>
    <radialGradient id="g2" cx="0" cy="0" r="1" gradientUnits="userSpaceOnUse" gradientTransform="translate(1240 140) rotate(140) scale(540 360)">
      <stop stop-color="#60A5FA" stop-opacity="0.52"/>
      <stop offset="1" stop-color="#60A5FA" stop-opacity="0"/>
    </radialGradient>
    <radialGradient id="g3" cx="0" cy="0" r="1" gradientUnits="userSpaceOnUse" gradientTransform="translate(860 820) rotate(-26) scale(900 300)">
      <stop stop-color="#1D4ED8" stop-opacity="0.48"/>
      <stop offset="1" stop-color="#1D4ED8" stop-opacity="0"/>
    </radialGradient>
    <linearGradient id="line" x1="100" y1="100" x2="1500" y2="800" gradientUnits="userSpaceOnUse">
      <stop stop-color="#67E8F9" stop-opacity="0.36"/>
      <stop offset="1" stop-color="#93C5FD" stop-opacity="0.08"/>
    </linearGradient>
    <filter id="blur" x="-20%" y="-20%" width="140%" height="140%">
      <feGaussianBlur stdDeviation="24"/>
    </filter>
  </defs>

  <rect width="1600" height="900" fill="#020817"/>
  <rect width="1600" height="900" fill="url(#g1)"/>
  <rect width="1600" height="900" fill="url(#g2)"/>
  <rect width="1600" height="900" fill="url(#g3)"/>

  <g opacity="0.28">
    <path d="M120 220C330 120 520 140 760 280C1020 430 1220 450 1460 370" stroke="url(#line)" stroke-width="2"/>
    <path d="M140 440C360 360 520 390 760 520C980 650 1210 670 1480 620" stroke="url(#line)" stroke-width="2"/>
    <path d="M80 680C340 560 580 600 820 730C1060 860 1260 860 1500 780" stroke="url(#line)" stroke-width="2"/>
  </g>

  <g filter="url(#blur)">
    <circle cx="260" cy="200" r="90" fill="#22D3EE" fill-opacity="0.3"/>
    <circle cx="1300" cy="180" r="100" fill="#60A5FA" fill-opacity="0.32"/>
    <circle cx="860" cy="760" r="120" fill="#3B82F6" fill-opacity="0.3"/>
  </g>
</svg>
